<mxfile host="app.diagrams.net" modified="2023-05-25T11:47:59.421Z" agent="Mozilla/5.0 (Macintosh; Intel Mac OS X 10_15_7) AppleWebKit/537.36 (KHTML, like Gecko) Chrome/113.0.0.0 Safari/537.36" version="21.3.3" etag="NfWJJGplyp8HnDOJ28aC" type="github">
  <diagram name="페이지-1" id="g-8cnUNeflZomV2Ov7Zt">
    <mxGraphModel>
      <root>
        <mxCell id="0" />
        <mxCell id="1" parent="0" />
      </root>
    </mxGraphModel>
  </diagram>
</mxfile>
